# Rhino

mtllib cubeTest3.mtl
usemtl diffuse_0
v -2.0155875682830811 -5.9663476943969727 1.9813344478607178
v -2.0155875682830811 -1.9997298717498779 1.9813344478607178
v 2.0092809200286865 -5.9663476943969727 1.9813344478607178
v 2.0092809200286865 -1.9997298717498779 1.9813344478607178
v 2.0092809200286865 -5.9663476943969727 1.9813344478607178
v 2.0092809200286865 -1.9997298717498779 1.9813344478607178
v 2.0092809200286865 -5.9663476943969727 -2.0080325603485107
v 2.0092809200286865 -1.9997298717498779 -2.0080325603485107
v 2.0092809200286865 -5.0287613868713379 1.1112519502639771
v 2.0092809200286865 -2.9729504585266113 1.1112519502639771
v 2.0092809200286865 -2.9729504585266113 -1.0022251605987549
v 2.0092809200286865 -5.0287613868713379 -1.0022251605987549
v 2.0092809200286865 -5.9663476943969727 -2.0080325603485107
v 2.0092809200286865 -1.9997298717498779 -2.0080325603485107
v -2.0155875682830811 -5.9663476943969727 -2.0080325603485107
v -2.0155875682830811 -1.9997298717498779 -2.0080325603485107
v -2.0155875682830811 -5.9663476943969727 -2.0080325603485107
v -2.0155875682830811 -1.9997298717498779 -2.0080325603485107
v -2.0155875682830811 -5.9663476943969727 1.9813344478607178
v -2.0155875682830811 -1.9997298717498779 1.9813344478607178
v -2.0155875682830811 -5.9663476943969727 1.9813344478607178
v -2.0155875682830811 -5.9663476943969727 -2.0080325603485107
v 2.0092809200286865 -5.9663476943969727 1.9813344478607178
v 2.0092809200286865 -5.9663476943969727 -2.0080325603485107
v -2.0155875682830811 -1.9997298717498779 1.9813344478607178
v -2.0155875682830811 -1.9997298717498779 -2.0080325603485107
v 2.0092809200286865 -1.9997298717498779 1.9813344478607178
v 2.0092809200286865 -1.9997298717498779 -2.0080325603485107
v 0.066361278295516968 -5.0287613868713379 1.1112519502639771
v 0.066361278295516968 -2.9729504585266113 1.1112519502639771
v 2.0092809200286865 -5.0287613868713379 1.1112519502639771
v 2.0092809200286865 -2.9729504585266113 1.1112519502639771
v 2.0092809200286865 -5.0287613868713379 -1.0022251605987549
v 2.0092809200286865 -2.9729504585266113 -1.0022251605987549
v 0.066361278295516968 -5.0287613868713379 -1.0022251605987549
v 0.066361278295516968 -2.9729504585266113 -1.0022251605987549
v 0.066361278295516968 -5.0287613868713379 -1.0022251605987549
v 0.066361278295516968 -2.9729504585266113 -1.0022251605987549
v 0.066361278295516968 -5.0287613868713379 1.1112519502639771
v 0.066361278295516968 -2.9729504585266113 1.1112519502639771
v 0.066361278295516968 -5.0287613868713379 1.1112519502639771
v 0.066361278295516968 -5.0287613868713379 -1.0022251605987549
v 2.0092809200286865 -5.0287613868713379 1.1112519502639771
v 2.0092809200286865 -5.0287613868713379 -1.0022251605987549
v 0.066361278295516968 -2.9729504585266113 1.1112519502639771
v 0.066361278295516968 -2.9729504585266113 -1.0022251605987549
v 2.0092809200286865 -2.9729504585266113 1.1112519502639771
v 2.0092809200286865 -2.9729504585266113 -1.0022251605987549
vt 0.57290893793106079 0.278891921043396
vt 0.28887021541595459 0.278891921043396
vt 0.57290893793106079 0.56629729270935059
vt 0.28887021541595459 0.56629729270935059
vt 0 0
vt 0 0.2846895158290863
vt 0.28632226586341858 0
vt 0.28632226586341858 0.2846895158290863
vt 0.062446992844343185 0.06729184091091156
vt 0.062446992844343185 0.21484015882015228
vt 0.2141340970993042 0.21484015882015228
vt 0.2141340970993042 0.06729184091091156
vt 0 0.5
vt 0 0.78468954563140869
vt 0.28740537166595459 0.5
vt 0.28740537166595459 0.78468954563140869
vt 0.57519245147705078 0.71531045436859131
vt 0.57519245147705078 0.99853515625
vt 0.86004990339279175 0.71531045436859131
vt 0.86004990339279175 0.99853515625
vt 0.57372760772705078 0.56776213645935059
vt 0.28887021541595459 0.56776213645935059
vt 0.57372760772705078 0.85663235187530518
vt 0.28887021541595459 0.85663235187530518
vt 0.86004990339279175 0.278891921043396
vt 0.57437378168106079 0.278891921043396
vt 0.86004990339279175 0.56629729270935059
vt 0.57437378168106079 0.56629729270935059
vt 0.4364185631275177 0.139445960521698
vt 0.28887021541595459 0.139445960521698
vt 0.4364185631275177 0.277427077293396
vt 0.28887021541595459 0.277427077293396
vt 0.4364185631275177 0
vt 0.28887021541595459 0
vt 0.4364185631275177 0.137981116771698
vt 0.28887021541595459 0.137981116771698
vt 0.57519245147705078 0.56776213645935059
vt 0.57519245147705078 0.71384561061859131
vt 0.72687959671020508 0.56776213645935059
vt 0.72687959671020508 0.71384561061859131
vt 0.72291940450668335 0.139445960521698
vt 0.57123231887817383 0.139445960521698
vt 0.72291940450668335 0.277427077293396
vt 0.57123231887817383 0.277427077293396
vt 0.72291940450668335 0
vt 0.57123231887817383 0
vt 0.72291940450668335 0.137981116771698
vt 0.57123231887817383 0.137981116771698
vn 0 0 1
vn 0 0 1
vn 0 0 1
vn 0 0 1
vn 1 0 0
vn 1 0 0
vn 1 0 0
vn 1 0 0
vn 1 0 0
vn 1 0 0
vn 1 0 0
vn 1 0 0
vn 0 0 -1
vn 0 0 -1
vn 0 0 -1
vn 0 0 -1
vn -1 0 0
vn -1 0 0
vn -1 0 0
vn -1 0 0
vn 0 -1 0
vn 0 -1 0
vn 0 -1 0
vn 0 -1 0
vn 0 1 0
vn 0 1 0
vn 0 1 0
vn 0 1 0
vn 0 0 -1
vn 0 0 -1
vn 0 0 -1
vn 0 0 -1
vn 0 0 1
vn 0 0 1
vn 0 0 1
vn 0 0 1
vn 1 0 0
vn 1 0 0
vn 1 0 0
vn 1 0 0
vn 0 1 0
vn 0 1 0
vn 0 1 0
vn 0 1 0
vn 0 -1 0
vn 0 -1 0
vn 0 -1 0
vn 0 -1 0
f 2/2/2 1/1/1 3/3/3 4/4/4
f 9/9/9 10/10/10 6/6/6 5/5/5
f 12/12/12 9/9/9 5/5/5
f 10/10/10 11/11/11 8/8/8 6/6/6
f 11/11/11 12/12/12 7/7/7 8/8/8
f 5/5/5 7/7/7 12/12/12
f 14/14/14 13/13/13 15/15/15 16/16/16
f 18/18/18 17/17/17 19/19/19 20/20/20
f 22/22/22 24/24/24 23/23/23 21/21/21
f 26/26/26 25/25/25 27/27/27 28/28/28
f 30/30/30 32/32/32 31/31/31 29/29/29
f 34/34/34 36/36/36 35/35/35 33/33/33
f 38/38/38 40/40/40 39/39/39 37/37/37
f 42/42/42 41/41/41 43/43/43 44/44/44
f 46/46/46 48/48/48 47/47/47 45/45/45
usemtl diffuse_0
v -2.0155875682830811 -5.9663476943969727 1.9813344478607178
v -2.0155875682830811 -1.9997298717498779 1.9813344478607178
v 2.0092809200286865 -5.9663476943969727 1.9813344478607178
v 2.0092809200286865 -1.9997298717498779 1.9813344478607178
v 2.0092809200286865 -5.9663476943969727 1.9813344478607178
v 2.0092809200286865 -1.9997298717498779 1.9813344478607178
v 2.0092809200286865 -5.9663476943969727 -2.0080325603485107
v 2.0092809200286865 -1.9997298717498779 -2.0080325603485107
v 2.0092809200286865 -5.0287613868713379 1.1112519502639771
v 2.0092809200286865 -2.9729504585266113 1.1112519502639771
v 2.0092809200286865 -2.9729504585266113 -1.0022251605987549
v 2.0092809200286865 -5.0287613868713379 -1.0022251605987549
v 2.0092809200286865 -5.9663476943969727 -2.0080325603485107
v 2.0092809200286865 -1.9997298717498779 -2.0080325603485107
v -2.0155875682830811 -5.9663476943969727 -2.0080325603485107
v -2.0155875682830811 -1.9997298717498779 -2.0080325603485107
v -2.0155875682830811 -5.9663476943969727 -2.0080325603485107
v -2.0155875682830811 -1.9997298717498779 -2.0080325603485107
v -2.0155875682830811 -5.9663476943969727 1.9813344478607178
v -2.0155875682830811 -1.9997298717498779 1.9813344478607178
v -2.0155875682830811 -5.9663476943969727 1.9813344478607178
v -2.0155875682830811 -5.9663476943969727 -2.0080325603485107
v 2.0092809200286865 -5.9663476943969727 1.9813344478607178
v 2.0092809200286865 -5.9663476943969727 -2.0080325603485107
v -2.0155875682830811 -1.9997298717498779 1.9813344478607178
v -2.0155875682830811 -1.9997298717498779 -2.0080325603485107
v 2.0092809200286865 -1.9997298717498779 1.9813344478607178
v 2.0092809200286865 -1.9997298717498779 -2.0080325603485107
v 0.066361278295516968 -5.0287613868713379 1.1112519502639771
v 0.066361278295516968 -2.9729504585266113 1.1112519502639771
v 2.0092809200286865 -5.0287613868713379 1.1112519502639771
v 2.0092809200286865 -2.9729504585266113 1.1112519502639771
v 2.0092809200286865 -5.0287613868713379 -1.0022251605987549
v 2.0092809200286865 -2.9729504585266113 -1.0022251605987549
v 0.066361278295516968 -5.0287613868713379 -1.0022251605987549
v 0.066361278295516968 -2.9729504585266113 -1.0022251605987549
v 0.066361278295516968 -5.0287613868713379 -1.0022251605987549
v 0.066361278295516968 -2.9729504585266113 -1.0022251605987549
v 0.066361278295516968 -5.0287613868713379 1.1112519502639771
v 0.066361278295516968 -2.9729504585266113 1.1112519502639771
v 0.066361278295516968 -5.0287613868713379 1.1112519502639771
v 0.066361278295516968 -5.0287613868713379 -1.0022251605987549
v 2.0092809200286865 -5.0287613868713379 1.1112519502639771
v 2.0092809200286865 -5.0287613868713379 -1.0022251605987549
v 0.066361278295516968 -2.9729504585266113 1.1112519502639771
v 0.066361278295516968 -2.9729504585266113 -1.0022251605987549
v 2.0092809200286865 -2.9729504585266113 1.1112519502639771
v 2.0092809200286865 -2.9729504585266113 -1.0022251605987549
vt 0.57290893793106079 0.278891921043396
vt 0.28887021541595459 0.278891921043396
vt 0.57290893793106079 0.56629729270935059
vt 0.28887021541595459 0.56629729270935059
vt 0 0
vt 0 0.2846895158290863
vt 0.28632226586341858 0
vt 0.28632226586341858 0.2846895158290863
vt 0.062446992844343185 0.06729184091091156
vt 0.062446992844343185 0.21484015882015228
vt 0.2141340970993042 0.21484015882015228
vt 0.2141340970993042 0.06729184091091156
vt 0 0.5
vt 0 0.78468954563140869
vt 0.28740537166595459 0.5
vt 0.28740537166595459 0.78468954563140869
vt 0.57519245147705078 0.71531045436859131
vt 0.57519245147705078 0.99853515625
vt 0.86004990339279175 0.71531045436859131
vt 0.86004990339279175 0.99853515625
vt 0.57372760772705078 0.56776213645935059
vt 0.28887021541595459 0.56776213645935059
vt 0.57372760772705078 0.85663235187530518
vt 0.28887021541595459 0.85663235187530518
vt 0.86004990339279175 0.278891921043396
vt 0.57437378168106079 0.278891921043396
vt 0.86004990339279175 0.56629729270935059
vt 0.57437378168106079 0.56629729270935059
vt 0.4364185631275177 0.139445960521698
vt 0.28887021541595459 0.139445960521698
vt 0.4364185631275177 0.277427077293396
vt 0.28887021541595459 0.277427077293396
vt 0.4364185631275177 0
vt 0.28887021541595459 0
vt 0.4364185631275177 0.137981116771698
vt 0.28887021541595459 0.137981116771698
vt 0.57519245147705078 0.56776213645935059
vt 0.57519245147705078 0.71384561061859131
vt 0.72687959671020508 0.56776213645935059
vt 0.72687959671020508 0.71384561061859131
vt 0.72291940450668335 0.139445960521698
vt 0.57123231887817383 0.139445960521698
vt 0.72291940450668335 0.277427077293396
vt 0.57123231887817383 0.277427077293396
vt 0.72291940450668335 0
vt 0.57123231887817383 0
vt 0.72291940450668335 0.137981116771698
vt 0.57123231887817383 0.137981116771698
vn 0 0 1
vn 0 0 1
vn 0 0 1
vn 0 0 1
vn 1 0 0
vn 1 0 0
vn 1 0 0
vn 1 0 0
vn 1 0 0
vn 1 0 0
vn 1 0 0
vn 1 0 0
vn 0 0 -1
vn 0 0 -1
vn 0 0 -1
vn 0 0 -1
vn -1 0 0
vn -1 0 0
vn -1 0 0
vn -1 0 0
vn 0 -1 0
vn 0 -1 0
vn 0 -1 0
vn 0 -1 0
vn 0 1 0
vn 0 1 0
vn 0 1 0
vn 0 1 0
vn 0 0 -1
vn 0 0 -1
vn 0 0 -1
vn 0 0 -1
vn 0 0 1
vn 0 0 1
vn 0 0 1
vn 0 0 1
vn 1 0 0
vn 1 0 0
vn 1 0 0
vn 1 0 0
vn 0 1 0
vn 0 1 0
vn 0 1 0
vn 0 1 0
vn 0 -1 0
vn 0 -1 0
vn 0 -1 0
vn 0 -1 0
f 50/50/50 49/49/49 51/51/51 52/52/52
f 57/57/57 58/58/58 54/54/54 53/53/53
f 60/60/60 57/57/57 53/53/53
f 58/58/58 59/59/59 56/56/56 54/54/54
f 59/59/59 60/60/60 55/55/55 56/56/56
f 53/53/53 55/55/55 60/60/60
f 62/62/62 61/61/61 63/63/63 64/64/64
f 66/66/66 65/65/65 67/67/67 68/68/68
f 70/70/70 72/72/72 71/71/71 69/69/69
f 74/74/74 73/73/73 75/75/75 76/76/76
f 78/78/78 80/80/80 79/79/79 77/77/77
f 82/82/82 84/84/84 83/83/83 81/81/81
f 86/86/86 88/88/88 87/87/87 85/85/85
f 90/90/90 89/89/89 91/91/91 92/92/92
f 94/94/94 96/96/96 95/95/95 93/93/93
